<?xml version="1.0" encoding="utf-8"?>
<!-- Generator: Adobe Illustrator 15.1.0, SVG Export Plug-In . SVG Version: 6.00 Build 0)  -->
<!DOCTYPE svg PUBLIC "-//W3C//DTD SVG 1.1//EN" "http://www.w3.org/Graphics/SVG/1.1/DTD/svg11.dtd">
<svg version="1.1" id="Layer_1" xmlns="http://www.w3.org/2000/svg" xmlns:xlink="http://www.w3.org/1999/xlink" x="0px" y="0px"
	 width="841.89px" height="595.28px" viewBox="0 0 841.89 595.28" enable-background="new 0 0 841.89 595.28" xml:space="preserve">
<text transform="matrix(1 0 0 1 13.9634 184.2046)"><tspan x="0" y="0" font-family="'Tahoma'" font-size="30">Community of </tspan><tspan x="0" y="36" font-family="'Tahoma'" font-size="30">Research Software </tspan><tspan x="0" y="72" font-family="'Tahoma'" font-size="30">Engineers </tspan><tspan x="0" y="108" font-family="'Tahoma'" font-size="30">in Germany</tspan></text>
<g>
	<rect x="172" y="7" fill="#D9E028" width="106" height="106"/>
	<text transform="matrix(1 0 0 1 198.3652 47.2354)"><tspan x="0" y="0" fill="#010101" font-family="'Tahoma-Bold'" font-size="46.5948">de</tspan><tspan x="-17.507" y="55.914" fill="#010101" font-family="'Tahoma-Bold'" font-size="46.5948">RSE</tspan></text>
</g>
<text transform="matrix(1 0 0 1 13.9634 369.3281)"><tspan x="0" y="0" font-family="'Tahoma'" font-size="16">join </tspan><tspan x="0" y="19.199" font-family="'Tahoma'" font-size="16">to learn, help and chat about </tspan></text>
<text transform="matrix(1 0 0 1 13.9634 515.5293)"><tspan x="0" y="0" fill="#939598" font-family="'Tahoma'" font-size="16">http://www.de-RSE.org</tspan><tspan x="0" y="38.4" fill="#939598" font-family="'Tahoma'" font-size="16">or talk to Stephan Janosch</tspan><tspan x="0" y="57.6" fill="#939598" font-family="'Tahoma'" font-size="16">email: janosch@mpi-cbg.de</tspan></text>
<line fill="none" x1="353.723" y1="-51.942" x2="354.326" y2="-51.942"/>
<text transform="matrix(1 0 0 1 293.9634 184.2046)"><tspan x="0" y="0" font-family="'Tahoma'" font-size="30">Community of </tspan><tspan x="0" y="36" font-family="'Tahoma'" font-size="30">Research Software </tspan><tspan x="0" y="72" font-family="'Tahoma'" font-size="30">Engineers </tspan><tspan x="0" y="108" font-family="'Tahoma'" font-size="30">in Germany</tspan></text>
<g>
	<rect x="452" y="7" fill="#D9E028" width="106" height="106"/>
	<text transform="matrix(1 0 0 1 478.3652 47.2354)"><tspan x="0" y="0" fill="#010101" font-family="'Tahoma-Bold'" font-size="46.5948">de</tspan><tspan x="-17.507" y="55.914" fill="#010101" font-family="'Tahoma-Bold'" font-size="46.5948">RSE</tspan></text>
</g>
<text transform="matrix(1 0 0 1 293.9634 369.3281)"><tspan x="0" y="0" font-family="'Tahoma'" font-size="16">join </tspan><tspan x="0" y="19.199" font-family="'Tahoma'" font-size="16">to learn, help and chat about </tspan></text>
<text transform="matrix(1 0 0 1 293.9634 515.5293)"><tspan x="0" y="0" fill="#939598" font-family="'Tahoma'" font-size="16">http://www.de-RSE.org</tspan><tspan x="0" y="38.4" fill="#939598" font-family="'Tahoma'" font-size="16">or talk to Stephan Janosch</tspan><tspan x="0" y="57.6" fill="#939598" font-family="'Tahoma'" font-size="16">email: janosch@mpi-cbg.de</tspan></text>
<text transform="matrix(1 0 0 1 568.9629 184.2046)"><tspan x="0" y="0" font-family="'Tahoma'" font-size="30">Community of </tspan><tspan x="0" y="36" font-family="'Tahoma'" font-size="30">Research Software </tspan><tspan x="0" y="72" font-family="'Tahoma'" font-size="30">Engineers </tspan><tspan x="0" y="108" font-family="'Tahoma'" font-size="30">in Germany</tspan></text>
<g>
	<rect x="727" y="7" fill="#D9E028" width="106" height="106"/>
	<text transform="matrix(1 0 0 1 753.3652 47.2354)"><tspan x="0" y="0" fill="#010101" font-family="'Tahoma-Bold'" font-size="46.5948">de</tspan><tspan x="-17.507" y="55.914" fill="#010101" font-family="'Tahoma-Bold'" font-size="46.5948">RSE</tspan></text>
</g>
<text transform="matrix(1 0 0 1 568.9629 369.3281)"><tspan x="0" y="0" font-family="'Tahoma'" font-size="16">join </tspan><tspan x="0" y="19.199" font-family="'Tahoma'" font-size="16">to learn, help and chat about </tspan></text>
<text transform="matrix(1 0 0 1 568.9629 515.5293)"><tspan x="0" y="0" fill="#939598" font-family="'Tahoma'" font-size="16">http://www.de-RSE.org</tspan><tspan x="0" y="38.4" fill="#939598" font-family="'Tahoma'" font-size="16">or talk to Stephan Janosch</tspan><tspan x="0" y="57.6" fill="#939598" font-family="'Tahoma'" font-size="16">email: janosch@mpi-cbg.de</tspan></text>
</svg>
